# xmcd
# 
# Track frame offsets:
#     150
#     14659
#     33255
#     45830
#     61039
#     76170
#     91357
#     107187
#     125158
#     143493
#     158126
#     173503
#     188727
#     205645
#     231026
# 
# Disc length: 4440
# 
# Revision: 1
# Processed by: cddbd v1.5.2PL0 Copyright (c) Steve Scherf et al.
# Submitted via: BonkEnc v1.0.8
# 
DISCID=b111560f
DTITLE=Various Artist - Alma Sertaneja
DYEAR=2004
DGENRE=Country
TTITLE0=Roberta Miranda - Dois em um
TTITLE1=Roberta Miranda - É mentira
TTITLE2=Roberta Miranda - Historia do sertão
TTITLE3=Roberta Miranda - Amigos e nada mais
TTITLE4=Roberta Miranda - Quando será
TTITLE5=Roberta Miranda - Vai
TTITLE6=Roberta Miranda - Alma sertaneja
TTITLE7=Roberta Miranda - Qual de nos dois se vai
TTITLE8=Roberta Miranda - Minha historia de amor
TTITLE9=Roberta Miranda - Coração socialista
TTITLE10=Roberta Miranda - Coração de uma mulher
TTITLE11=Roberta Miranda - Cartas e bilhetes
TTITLE12=Roberta Miranda - Te deixo só
TTITLE13=Roberta Miranda - Vou botar você na linha
TTITLE14=Roberta Mirnada - Data
EXTD=YEAR: 2004
EXTT0=
EXTT1=
EXTT2=
EXTT3=
EXTT4=
EXTT5=
EXTT6=
EXTT7=
EXTT8=
EXTT9=
EXTT10=
EXTT11=
EXTT12=
EXTT13=
EXTT14=
PLAYORDER=
